<svg width="464" height="101" viewBox="0 0 464 101" fill="none" xmlns="http://www.w3.org/2000/svg">
<path d="M286.67 67.2644H238.452C239.068 71.6238 241.161 75.6399 244.381 78.6418C247.765 81.4912 252.082 82.9894 256.504 82.8482C259.993 82.9004 263.451 82.1923 266.639 80.7731C269.78 79.4048 272.533 77.2796 274.651 74.5876L284.795 86.3336C281.755 90.5173 277.717 93.8748 273.049 96.1005C267.375 98.8056 261.146 100.142 254.861 100.002C247.747 100.159 240.715 98.4548 234.462 95.0589C228.863 91.9135 224.275 87.2391 221.234 81.5823C218.115 75.8588 216.539 69.4227 216.659 62.9058V60.1896C216.536 53.1472 218.015 46.169 220.985 39.7824C223.684 34.002 228.026 29.1447 233.468 25.8171C239.26 22.376 245.898 20.6196 252.634 20.7453C259.077 20.5818 265.444 22.1625 271.062 25.3203C276.125 28.4125 280.165 32.9268 282.68 38.3002C285.415 44.5754 286.765 51.3665 286.638 58.2106L286.67 67.2644ZM265.774 51.3201C265.899 47.7435 264.662 44.2528 262.313 41.5531C260.085 39.1975 256.872 37.9637 252.546 37.9637C250.768 37.9039 248.999 38.2263 247.357 38.9091C245.714 39.5919 244.238 40.6193 243.027 41.9217C240.513 45.1319 238.968 48.9927 238.572 53.0507H265.774V51.3201Z" fill="black"/>
<path d="M157.216 80.9894H201.852V99.2012H131.473V86.0611L175.74 18.9186H131V0.650635H200.987V13.4702L157.216 80.9894Z" fill="black"/>
<path d="M306.212 59.7249C306.212 36.1048 321.908 23.6217 341.073 23.6217C360.238 23.6217 375.574 36.1048 375.574 59.7249V98.4H355.815V60.5902C355.815 47.4822 349.878 40.6798 340.977 40.6798C332.075 40.6798 325.641 47.4822 325.641 60.5902V98.5522H306.083L306.212 59.7249V59.7249Z" fill="black"/>
<path d="M394.619 59.7249C394.619 36.1048 410.315 23.6217 429.48 23.6217C448.645 23.6217 463.981 36.1048 463.981 59.7249V98.4H444.199V60.5902C444.199 47.4822 438.262 40.6798 429.36 40.6798C420.458 40.6798 414.025 47.4822 414.025 60.5902V98.5522H394.491L394.619 59.7249Z" fill="black"/>
<path d="M1.56534 100.002H22.5815C23.1206 99.9893 23.6488 99.848 24.1225 99.5903C24.5963 99.3325 25.0018 98.9657 25.3056 98.5201L83.17 3.43084C83.3388 3.15437 83.4293 2.83721 83.4318 2.51328C83.4342 2.18935 83.3486 1.87085 83.184 1.59185C83.0194 1.31285 82.782 1.08385 82.4973 0.929342C82.2126 0.774836 81.8912 0.700643 81.5676 0.714695H61.6572C61.1791 0.707499 60.7081 0.830446 60.2946 1.07038C59.8811 1.31031 59.5406 1.65819 59.3096 2.07677L0.57182 98.3038C0.489408 98.4791 0.450886 98.6718 0.459576 98.8653C0.468267 99.0588 0.52391 99.2473 0.621704 99.4145C0.719498 99.5817 0.856505 99.7226 1.0209 99.825C1.1853 99.9274 1.37216 99.9883 1.56534 100.002V100.002Z" fill="#3EA8FF"/>
<path d="M74.0201 98.5522L101.342 54.6531C101.538 54.3473 101.648 53.9938 101.658 53.6305C101.669 53.2672 101.581 52.9078 101.403 52.5909C101.225 52.2739 100.965 52.0113 100.649 51.8312C100.333 51.651 99.9746 51.5602 99.6112 51.5684H79.829C79.4625 51.5638 79.1008 51.6517 78.7773 51.8239C78.4538 51.9962 78.1789 52.2472 77.9782 52.5539L49.9353 97.4225C49.7797 97.6787 49.6948 97.9717 49.689 98.2714C49.6833 98.5712 49.757 98.8671 49.9027 99.1292C50.0484 99.3912 50.2608 99.6101 50.5184 99.7634C50.7761 99.9168 51.0697 99.9993 51.3695 100.002H71.5203C72.0311 100.019 72.5363 99.8926 72.9784 99.6361C73.4204 99.3797 73.7814 99.0041 74.0201 98.5522V98.5522Z" fill="#3EA8FF"/>
</svg>
