<svg width="102" height="100" viewBox="0 0 102 100" fill="none" xmlns="http://www.w3.org/2000/svg">
<path d="M1.10696 99.3518H22.1231C22.6622 99.3387 23.1905 99.1974 23.6642 98.9396C24.1379 98.6819 24.5434 98.3151 24.8472 97.8695L82.7117 2.78021C82.8805 2.50374 82.9709 2.18657 82.9734 1.86265C82.9758 1.53872 82.8902 1.22022 82.7256 0.941218C82.561 0.662218 82.3236 0.433213 82.0389 0.278707C81.7542 0.124201 81.4328 0.0500084 81.1092 0.0640601H61.1988C60.7207 0.0568645 60.2497 0.179811 59.8362 0.419743C59.4227 0.659675 59.0822 1.00755 58.8512 1.42614L0.113446 97.6532C0.0310343 97.8285 -0.00748837 98.0212 0.00120242 98.2147C0.0098932 98.4082 0.065536 98.5967 0.16333 98.7639C0.261124 98.9311 0.398131 99.072 0.56253 99.1744C0.726929 99.2768 0.913781 99.3377 1.10696 99.3518V99.3518Z" fill="#3EA8FF"/>
<path d="M73.5617 97.9015L100.883 54.0025C101.08 53.6966 101.189 53.3431 101.2 52.9799C101.211 52.6166 101.123 52.2572 100.945 51.9402C100.767 51.6233 100.506 51.3606 100.191 51.1805C99.8749 51.0004 99.5162 50.9096 99.1529 50.9177H79.3706C79.0041 50.9131 78.6424 51.001 78.3189 51.1733C77.9954 51.3455 77.7205 51.5966 77.5198 51.9033L49.4769 96.7718C49.3214 97.0281 49.2364 97.321 49.2307 97.6208C49.2249 97.9206 49.2986 98.2165 49.4443 98.4786C49.59 98.7406 49.8024 98.9594 50.0601 99.1128C50.3177 99.2662 50.6113 99.3486 50.9111 99.3518H71.0619C71.5727 99.3688 72.078 99.2419 72.52 98.9855C72.962 98.729 73.323 98.3534 73.5617 97.9015V97.9015Z" fill="#3EA8FF"/>
</svg>
