<svg width="256" height="256" viewBox="0 0 256 256" fill="none" xmlns="http://www.w3.org/2000/svg">
<path d="M182.095 11.9926C212.862 26.3395 236.67 52.3209 248.281 84.2213C259.891 116.122 258.354 151.328 244.008 182.095C229.661 212.862 203.679 236.67 171.779 248.28C139.879 259.891 104.673 258.354 73.9056 244.008L128 128L182.095 11.9926Z" fill="#DDCEBA"/>
<path d="M73.9049 244.007C43.1379 229.661 19.3302 203.679 7.71942 171.779C-3.89141 139.878 -2.35437 104.672 11.9924 73.9053C26.3392 43.1382 52.3205 19.3305 84.2208 7.71958C116.121 -3.89136 151.327 -2.35445 182.094 11.9922L128 128L73.9049 244.007Z" fill="#E3DBD0"/>
<path d="M65.497 199.845C64.8008 200.309 63.2343 199.729 60.7976 198.106C58.3608 196.599 56.3302 194.917 54.7057 193.062C53.8935 192.135 53.3713 191.149 53.1392 190.106C52.9072 189.062 52.9652 187.091 53.3133 184.192C53.7774 182.917 54.0095 181.699 54.0095 180.54C54.1255 179.38 54.1836 178.568 54.1836 178.105C54.1836 177.409 54.3576 175.786 54.7057 173.235C55.1699 170.684 55.634 168.017 56.0981 165.234C56.5623 162.335 56.9684 160.132 57.3165 158.625C57.3165 158.509 57.3745 158.103 57.4906 157.408C57.7226 156.712 57.8967 156.19 58.0127 155.842C58.2448 154.799 58.5349 153.523 58.883 152.016C59.2311 150.508 59.5792 148.479 59.9273 145.928C60.8556 143.03 61.6098 140.189 62.19 137.406C62.8862 134.507 63.2343 132.536 63.2343 131.493C63.2343 129.405 64.0465 127.898 65.671 126.97C65.7871 126.391 66.1352 125.521 66.7153 124.362C67.2955 123.086 67.8177 122.043 68.2818 121.231C70.6025 114.622 72.5171 109.346 74.0256 105.404C75.534 101.461 77.1005 98.0408 78.725 95.1421C79.4212 93.1709 80.1754 91.1418 80.9877 89.0547C81.9159 86.9676 82.8442 85.3442 83.7725 84.1847C84.5848 82.5614 85.9772 80.5903 87.9498 78.2713C90.0384 75.8363 92.2431 73.5173 94.5638 71.3142C96.8845 69.1112 98.741 67.4879 100.133 66.4443C102.686 65.1689 105.065 64.1253 107.27 63.3137C109.474 62.502 111.795 62.0962 114.232 62.0962C116.436 62.0962 118.351 62.618 119.975 63.6615C121.716 64.5891 124.269 66.5603 127.634 69.575C128.794 71.0823 129.374 72.5317 129.374 73.9231C129.374 75.3145 129.084 76.474 128.504 77.4016C127.692 79.2569 126.473 81.5759 124.849 84.3587C123.224 87.0255 121.658 89.4605 120.15 91.6636C118.641 93.7507 117.539 94.8522 116.843 94.9681C115.45 95.7798 114 96.0117 112.491 95.6638C110.983 95.316 110.229 94.2724 110.229 92.5332C110.229 91.7215 110.229 90.9678 110.229 90.2722C110.345 89.5764 110.403 89.2286 110.403 89.2286C110.751 87.7212 111.157 86.3878 111.621 85.2283C112.201 84.0688 112.723 83.0832 113.187 82.2716C114.116 80.7642 114.348 79.3148 113.884 77.9234C113.536 76.532 112.085 75.9523 109.532 76.1842C109.184 76.4161 108.488 76.9958 107.444 77.9234C106.515 78.7351 105.471 79.7207 104.311 80.8802C103.266 81.9237 102.338 82.9673 101.526 84.0108C100.714 84.9384 100.308 85.5762 100.308 85.924C100.308 85.924 99.9594 86.5617 99.2632 87.8372C98.683 88.9967 97.7547 90.3301 96.4783 91.8375C95.6661 92.997 94.9699 94.0985 94.3897 95.1421C93.8095 96.1856 93.5195 96.9973 93.5195 97.577C93.5195 98.0408 93.4614 98.4467 93.3454 98.7945C93.2294 99.1424 92.9393 99.3163 92.4751 99.3163C92.4751 99.3163 92.2431 99.896 91.7789 101.056C91.4308 102.215 90.7926 103.606 89.8643 105.23C89.4002 106.389 88.878 107.491 88.2979 108.534C87.8337 109.462 87.3696 110.158 86.9055 110.621L86.7314 110.969C86.7314 110.969 86.4413 111.665 85.8611 113.056C85.397 114.332 84.8748 115.665 84.2947 117.057C83.7145 118.448 83.4244 119.26 83.4244 119.492C83.4244 119.955 84.1206 120.187 85.513 120.187C86.9055 120.187 88.588 120.013 90.5606 119.666C92.5332 119.202 94.4477 118.738 96.3043 118.274C97.9288 117.81 99.0891 117.578 99.7854 117.578C100.482 117.578 101.584 117.81 103.092 118.274C104.021 118.854 104.775 119.898 105.355 121.405C105.935 122.796 106.341 124.246 106.573 125.753C106.922 127.144 106.98 128.188 106.747 128.884C106.631 129.347 105.297 129.985 102.744 130.797C100.308 131.609 97.8708 132.246 95.434 132.71C93.3454 133.174 90.9667 133.696 88.2979 134.275C85.7451 134.739 83.4824 135.261 81.5098 135.841C79.5372 136.305 78.4929 136.768 78.3769 137.232C77.9127 137.232 77.5066 137.522 77.1585 138.102C76.9264 138.681 76.8104 139.203 76.8104 139.667C76.8104 141.174 76.5203 142.392 75.9401 143.32C75.7081 144.015 75.3019 145.465 74.7218 147.668C74.2576 149.755 73.7355 152.074 73.1553 154.625C72.6912 157.06 72.227 159.379 71.7629 161.582C71.4148 163.669 71.2407 165.06 71.2407 165.756C70.5445 166.568 70.1384 167.611 70.0223 168.887C69.9063 170.046 69.8483 171.09 69.8483 172.017C69.3842 172.945 69.0941 173.815 68.978 174.626C68.862 175.322 68.804 175.902 68.804 176.365C68.804 176.481 68.804 176.713 68.804 177.061C68.804 177.409 68.746 177.757 68.6299 178.105C68.5139 179.264 68.3398 180.772 68.1078 182.627C67.9917 184.598 67.9337 186.511 67.9337 188.366L67.4116 193.41C67.2955 194.918 67.0635 196.193 66.7153 197.237C66.4833 198.396 66.0772 199.266 65.497 199.845Z" fill="#325F79"/>
<path d="M129.166 197.237C126.962 197.584 124.293 197.526 121.16 197.063C118.027 196.715 114.662 196.077 111.065 195.149C109.208 194.57 107.874 193.874 107.062 193.062C106.365 192.251 105.147 190.743 103.406 188.54C102.246 186.801 101.492 184.83 101.144 182.627C100.912 180.424 101.202 178.453 102.014 176.713C102.942 174.974 104.451 173.93 106.539 173.583C107.468 173.351 108.57 173.583 109.846 174.278C111.239 174.858 112.689 175.612 114.198 176.539C116.634 177.931 119.245 179.322 122.03 180.714C124.815 182.221 127.368 182.801 129.688 182.453C131.313 182.105 133.227 181.873 135.432 181.757C137.753 181.757 139.958 181.583 142.046 181.235C144.251 180.887 145.991 180.25 147.268 179.322C153.418 175.148 158.001 171.843 161.018 169.408C164.035 166.857 165.543 165.582 165.543 165.582C165.775 165.118 166.181 164.77 166.762 164.538C167.458 164.191 168.27 163.843 169.198 163.495C169.895 162.799 170.997 161.698 172.505 160.19C174.014 158.567 175.464 157.002 176.857 155.494C178.365 153.987 179.293 153.117 179.642 152.885C179.874 151.842 180.106 151.03 180.338 150.45C180.57 149.755 180.686 149.059 180.686 148.363C181.614 147.436 182.832 145.523 184.341 142.624C185.965 139.609 187.59 136.305 189.214 132.71C190.839 129 191.999 125.637 192.695 122.622C194.204 116.245 194.726 110.448 194.262 105.23C193.798 100.012 192.463 95.316 190.259 91.1418C188.054 86.9676 185.095 83.3151 181.382 80.1845C180.106 79.1409 178.365 78.0394 176.16 76.8799C173.956 75.6044 171.693 74.4449 169.372 73.4014C167.052 72.2418 164.963 71.3722 163.107 70.7925C161.366 70.2127 160.322 69.9808 159.974 70.0968C159.509 70.2127 158.581 72.0099 157.189 75.4885C155.912 78.851 154.288 83.1992 152.315 88.5329C150.459 93.8666 148.428 99.6062 146.223 105.752C144.135 111.781 142.104 117.521 140.132 122.97C139.551 125.173 138.797 127.492 137.869 129.927C137.057 132.362 136.36 134.507 135.78 136.362C135.2 138.102 134.91 139.261 134.91 139.841C133.634 141.812 132.299 144.827 130.907 148.885C129.514 152.943 128.354 158.741 127.426 166.278C126.381 170.22 125.627 173.525 125.163 176.191C124.699 178.742 124.235 179.96 123.771 179.844C123.771 179.844 123.713 180.366 123.597 181.409C123.481 182.569 123.248 183.322 122.9 183.67C122.9 184.366 122.204 184.83 120.812 185.062C119.419 185.294 117.795 185.004 115.938 184.192C114.082 183.38 112.341 181.815 110.717 179.496C110.369 178.221 110.078 176.365 109.846 173.93C109.73 171.38 110.136 168.423 111.065 165.06C111.645 162.857 112.457 160.016 113.502 156.538C114.546 153.059 115.706 149.465 116.983 145.754C118.259 142.044 119.419 138.624 120.464 135.493C121.624 132.362 122.436 130.043 122.9 128.536C123.713 126.565 124.873 122.854 126.381 117.405C127.31 114.39 128.238 111.375 129.166 108.36C130.211 105.346 131.197 102.679 132.125 100.36C133.053 97.9249 133.692 96.3596 134.04 95.6638C134.62 94.1565 135.316 91.7215 136.128 88.359C137.057 84.8805 138.449 80.9381 140.306 76.532L141.524 70.7925L139.609 69.9228C138.217 70.3866 137.115 70.5606 136.302 70.4446C135.606 70.2127 135.142 70.0388 134.91 69.9228C134.214 70.1547 133.285 69.9808 132.125 69.4011C131.081 68.7054 130.095 67.8357 129.166 66.7922C128.354 65.7486 127.832 64.879 127.6 64.1833C127.368 63.7195 127.194 63.1397 127.078 62.444C127.078 61.6324 127.078 61.2265 127.078 61.2265C127.194 60.5308 128.18 59.8351 130.037 59.1394C131.893 58.3278 134.272 57.5741 137.173 56.8784C140.19 56.1827 143.381 55.6609 146.746 55.3131C150.111 54.9652 153.244 54.9072 156.144 55.1391C159.161 55.371 162.874 56.0667 167.284 57.2262C171.693 58.3858 175.464 59.5453 178.597 60.7048C182.31 62.0962 186.314 64.4732 190.607 67.8357C194.9 71.1983 198.787 75.1986 202.268 79.8366C205.865 84.4746 208.244 89.3445 209.405 94.4464C209.753 95.8378 210.101 97.8089 210.449 100.36C210.797 102.911 210.971 105.404 210.971 107.839C211.087 110.158 210.855 111.665 210.275 112.361C210.043 112.825 209.869 113.404 209.753 114.1C209.753 114.68 209.985 115.086 210.449 115.317C210.333 115.665 209.927 116.999 209.23 119.318C208.534 121.521 207.896 123.434 207.316 125.057C207.084 128.072 206.272 131.551 204.879 135.493C203.603 139.435 202.152 143.204 200.528 146.798C199.019 150.277 197.685 153.001 196.525 154.973C196.061 154.973 195.596 155.088 195.132 155.32C194.784 155.436 194.842 155.552 195.306 155.668C195.306 156.248 194.668 157.35 193.392 158.973C192.928 159.321 192.173 160.19 191.129 161.582C190.201 162.857 189.446 163.727 188.866 164.191C188.75 165.002 188.402 165.698 187.822 166.278C187.242 166.742 186.72 166.973 186.256 166.973C186.256 166.973 186.139 166.973 185.907 166.973C185.791 166.973 185.733 167.205 185.733 167.669C184.805 169.061 183.239 170.858 181.034 173.061C178.829 175.264 176.335 177.525 173.55 179.844C170.765 182.163 167.98 184.308 165.195 186.279C162.41 188.25 159.858 189.7 157.537 190.627C156.376 191.439 155.158 192.077 153.882 192.541C152.605 193.12 151.387 193.7 150.227 194.28C149.646 194.744 147.964 195.149 145.179 195.497C142.394 195.845 139.435 196.135 136.302 196.367C133.285 196.599 130.907 196.889 129.166 197.237Z" fill="#325F79"/>
</svg>
