<svg width="355" height="128" viewBox="0 0 355 128" fill="none" xmlns="http://www.w3.org/2000/svg">
<path d="M11.0307 127.864C10.4162 128.273 9.03349 127.761 6.88266 126.328C4.73183 124.998 2.93947 123.513 1.50558 121.876C0.788638 121.057 0.327746 120.187 0.122904 119.266C-0.0819363 118.344 -0.0307262 116.604 0.276535 114.045C0.686217 112.92 0.891059 111.845 0.891059 110.821C0.993479 109.798 1.04469 109.081 1.04469 108.672C1.04469 108.058 1.19832 106.625 1.50558 104.373C1.91526 102.121 2.32495 99.7667 2.73463 97.3102C3.14431 94.7513 3.50278 92.8065 3.81004 91.4759C3.81004 91.3735 3.86125 91.0153 3.96367 90.4011C4.16852 89.787 4.32215 89.3264 4.42457 89.0193C4.62941 88.0981 4.88546 86.9722 5.19272 85.6415C5.49998 84.3109 5.80724 82.5197 6.1145 80.2678C6.93387 77.7089 7.5996 75.2012 8.1117 72.7446C8.72623 70.1857 9.03349 68.4457 9.03349 67.5245C9.03349 65.6821 9.75043 64.3514 11.1843 63.5326C11.2867 63.0208 11.594 62.2531 12.1061 61.2296C12.6182 60.1036 13.0791 59.1824 13.4888 58.4659C15.5372 52.6316 17.2271 47.9744 18.5586 44.4943C19.8901 41.0142 21.2727 37.9947 22.7066 35.4358C23.3212 33.6957 23.9869 31.9045 24.7038 30.0621C25.5232 28.2196 26.3426 26.7866 27.1619 25.7631C27.8789 24.3301 29.1079 22.59 30.8491 20.5429C32.6926 18.3934 34.6386 16.3463 36.687 14.4015C38.7354 12.4568 40.3742 11.0238 41.6032 10.1026C43.8565 8.97666 45.9561 8.05545 47.9021 7.33895C49.8481 6.62246 51.8965 6.26421 54.0473 6.26421C55.9933 6.26421 57.6832 6.72481 59.1171 7.64601C60.6534 8.46486 62.9067 10.2049 65.8769 12.8662C66.9011 14.1968 67.4132 15.4763 67.4132 16.7045C67.4132 17.9328 67.1571 18.9564 66.645 19.7752C65.9281 21.4129 64.8527 23.4601 63.4188 25.9166C61.9849 28.2708 60.6022 30.4203 59.2708 32.3651C57.9393 34.2075 56.9663 35.1799 56.3518 35.2822C55.1227 35.9987 53.8425 36.2034 52.511 35.8964C51.1795 35.5893 50.5138 34.6681 50.5138 33.1327C50.5138 32.4163 50.5138 31.7509 50.5138 31.1368C50.6162 30.5227 50.6674 30.2156 50.6674 30.2156C50.9747 28.885 51.3332 27.7079 51.7429 26.6843C52.255 25.6607 52.7158 24.7907 53.1255 24.0742C53.9449 22.7436 54.1497 21.4641 53.7401 20.2358C53.4328 19.0076 52.1525 18.4958 49.8993 18.7005C49.592 18.9052 48.9775 19.417 48.0557 20.2358C47.2364 20.9523 46.3146 21.8224 45.2904 22.8459C44.3686 23.7671 43.5492 24.6883 42.8323 25.6096C42.1153 26.4284 41.7569 26.9914 41.7569 27.2984C41.7569 27.2984 41.4496 27.8614 40.8351 28.9873C40.323 30.0109 39.5036 31.188 38.377 32.5186C37.66 33.5422 37.0455 34.5146 36.5334 35.4358C36.0213 36.357 35.7652 37.0735 35.7652 37.5852C35.7652 37.9947 35.714 38.3529 35.6116 38.66C35.5092 38.9671 35.2532 39.1206 34.8435 39.1206C34.8435 39.1206 34.6386 39.6324 34.2289 40.6559C33.9217 41.6795 33.3584 42.9078 32.539 44.3408C32.1293 45.3643 31.6684 46.3367 31.1563 47.2579C30.7466 48.0768 30.337 48.6909 29.9273 49.1003L29.7736 49.4074C29.7736 49.4074 29.5176 50.0215 29.0055 51.2498C28.5958 52.3757 28.1349 53.5528 27.6228 54.7811C27.1107 56.0094 26.8547 56.7259 26.8547 56.9306C26.8547 57.34 27.4692 57.5447 28.6982 57.5447C29.9273 57.5447 31.4124 57.3912 33.1535 57.0841C34.8947 56.6747 36.5846 56.2653 38.2233 55.8559C39.6572 55.4464 40.6814 55.2417 41.296 55.2417C41.9105 55.2417 42.8835 55.4464 44.2149 55.8559C45.0343 56.3676 45.7 57.2888 46.2121 58.6195C46.7242 59.8477 47.0827 61.1272 47.2876 62.4578C47.5948 63.6861 47.646 64.6073 47.4412 65.2215C47.3388 65.6309 46.1609 66.1938 43.9077 66.9103C41.7569 67.6268 39.606 68.1898 37.4552 68.5992C35.6116 69.0086 33.512 69.4692 31.1563 69.981C28.9031 70.3904 26.9059 70.8511 25.1647 71.3628C23.4236 71.7723 22.5018 72.1817 22.3994 72.5911C21.9897 72.5911 21.6312 72.847 21.324 73.3588C21.1191 73.8706 21.0167 74.3312 21.0167 74.7406C21.0167 76.0712 20.7606 77.146 20.2485 77.9648C20.0437 78.579 19.6852 79.8584 19.1731 81.8032C18.7634 83.6456 18.3025 85.6927 17.7904 87.9446C17.3808 90.094 16.9711 92.1412 16.5614 94.0859C16.2541 95.9284 16.1005 97.1566 16.1005 97.7708C15.486 98.4873 15.1275 99.4085 15.0251 100.534C14.9227 101.558 14.8715 102.479 14.8715 103.298C14.4618 104.117 14.2057 104.885 14.1033 105.601C14.0009 106.215 13.9497 106.727 13.9497 107.136C13.9497 107.239 13.9497 107.443 13.9497 107.751C13.9497 108.058 13.8985 108.365 13.796 108.672C13.6936 109.695 13.54 111.026 13.3352 112.664C13.2327 114.404 13.1815 116.093 13.1815 117.73L12.7206 122.183C12.6182 123.513 12.4134 124.639 12.1061 125.561C11.9013 126.584 11.5428 127.352 11.0307 127.864Z" fill="#325F79"/>
<path d="M86.2798 108.979C85.2556 107.955 84.4362 106.573 83.8217 104.833C83.2072 102.991 82.5926 100.893 81.9781 98.5384C81.7733 97.7196 81.6709 96.7984 81.6709 95.7748C81.7733 94.7513 81.7733 93.9324 81.6709 93.3183C81.3636 94.0348 80.8515 94.956 80.1345 96.0819C79.52 97.2078 78.9055 98.0267 78.291 98.5384C77.8813 98.9479 76.9595 99.7667 75.5256 100.995C74.0917 102.121 72.6578 103.042 71.224 103.759C67.8441 105.908 64.8227 106.932 62.1597 106.829C59.5992 106.625 57.346 105.294 55.4 102.837C53.7613 101.507 52.4298 99.8179 51.4056 97.7708C50.3814 95.7236 50.1765 93.2671 50.7911 90.4011C50.9959 86.8186 51.508 83.3385 52.3274 79.9608C53.1467 76.4806 54.8367 71.8746 57.3972 66.1427C59.548 61.946 61.1867 58.6706 62.3134 56.3164C63.44 53.9623 64.1569 52.5804 64.4642 52.171C66.0005 51.6592 67.8953 51.7104 70.1485 52.3246C72.4018 52.8363 73.6308 53.8087 73.8357 55.2417C74.4502 56.2653 74.4502 58.21 73.8357 61.076C73.2212 63.8396 71.9921 67.0127 70.1485 70.5952C68.7147 74.0753 67.332 77.453 66.0005 80.7284C64.7715 84.0038 64.0033 86.7675 63.696 89.0193C63.4912 91.2711 64.1057 92.6529 65.5396 93.1647C66.4614 93.6765 67.7929 93.6253 69.534 93.0112C71.3776 92.3971 73.5284 90.5546 75.9865 87.484C78.4446 84.4133 81.0563 79.5513 83.8217 72.8982C84.641 70.8511 85.2556 69.0598 85.6652 67.5245C86.0749 65.8868 86.331 64.0955 86.4334 62.1508C86.2286 60.9225 86.5358 59.643 87.3552 58.3124C88.277 56.9818 89.3524 55.9582 90.5814 55.2417C90.9911 54.7299 91.5544 54.2693 92.2714 53.8599C92.9883 53.3481 93.4492 53.3481 93.654 53.8599L96.1121 53.7064C96.5218 53.604 96.9827 54.0134 97.4948 54.9346C98.0069 55.8559 98.519 56.5212 99.0311 56.9306C100.158 57.8518 100.67 59.8478 100.567 62.9184C100.465 65.9891 99.236 70.2881 96.8803 75.8153C94.9343 80.0119 93.6028 83.185 92.8859 85.3345C92.2714 87.484 91.9129 89.5823 91.8105 91.6294C91.8105 93.4718 91.9641 95.0583 92.2714 96.389C92.5786 97.6172 93.5004 98.8967 95.0367 100.227C96.1634 100.944 96.7779 102.172 96.8803 103.912C97.0851 105.55 97.1364 106.983 97.0339 108.211C96.8291 109.132 96.0097 109.746 94.5758 110.054C93.2444 110.463 91.7593 110.565 90.1205 110.361C88.5842 110.156 87.304 109.695 86.2798 108.979Z" fill="#325F79"/>
<path d="M110.879 108.211C109.342 107.699 107.96 106.88 106.731 105.755C105.604 104.629 105.143 102.786 105.348 100.227C105.553 98.692 105.86 97.1055 106.27 95.4678C106.679 93.7277 107.192 92.0388 107.806 90.4011C108.113 88.5587 108.472 86.7163 108.882 84.8739C109.394 83.0315 110.213 81.2914 111.34 79.6537C112.671 75.8665 114.054 72.1305 115.488 68.4457C116.922 64.6585 118.151 60.7178 119.175 56.6235C120.711 52.9387 122.094 49.6633 123.323 46.7973C124.654 43.9313 126.242 40.2465 128.085 35.7428C129.11 33.3886 129.98 30.7785 130.697 27.9126C131.516 24.9442 132.745 22.3342 134.384 20.0823C135.101 19.1611 135.613 18.3934 135.921 17.7793C136.33 17.0628 136.74 16.3975 137.15 15.7833C137.867 14.3504 138.942 13.685 140.376 13.7874C141.912 13.8898 142.936 14.2992 143.448 15.0157C145.19 15.7322 146.419 17.0628 147.136 19.0076C147.853 20.85 148.109 22.1806 147.904 22.9995C147.904 24.1254 147.494 25.3537 146.675 26.6843C146.265 27.0937 145.855 27.7079 145.446 28.5267C145.036 29.2432 144.421 30.2156 143.602 31.4439C143.192 32.7745 142.783 34.1051 142.373 35.4358C141.963 36.7664 141.502 37.9947 140.99 39.1206C140.478 40.2465 139.915 41.3724 139.3 42.4983C138.686 43.6243 138.276 44.5455 138.071 45.262C137.15 47.6162 136.125 49.9192 134.999 52.171C133.975 54.3205 133.053 56.6235 132.233 59.0801C131.414 61.4343 130.543 63.942 129.622 66.6033C128.7 69.1622 127.522 71.6187 126.088 73.9729C125.371 74.9965 124.962 76.3783 124.859 78.1183C124.859 79.8584 124.654 81.5473 124.245 83.185C123.528 85.0274 122.862 86.7163 122.247 88.2516C121.735 89.787 121.479 90.7594 121.479 91.1688C120.762 93.4206 120.199 95.6725 119.789 97.9243C119.38 100.074 118.714 101.967 117.792 103.605C117.792 106.062 117.126 107.597 115.795 108.211C114.463 108.825 112.825 108.825 110.879 108.211ZM146.06 109.593C144.421 109.388 143.192 109.081 142.373 108.672C141.554 108.16 140.017 107.085 137.764 105.447C136.535 104.219 134.999 102.326 133.155 99.7667C131.312 97.2078 129.468 94.4954 127.624 91.6294C125.781 88.6611 124.142 86.1533 122.708 84.1062L131.158 73.3588C132.489 74.9965 133.565 76.5318 134.384 77.9648C135.204 79.3978 135.869 80.3702 136.381 80.882C138.737 84.3621 140.581 87.1769 141.912 89.3264C143.244 91.4759 144.37 93.2159 145.292 94.5465C146.316 95.8772 147.443 97.0543 148.672 98.0778C149.901 99.1014 151.488 100.176 153.434 101.302C153.742 101.507 154.049 102.019 154.356 102.837C154.663 103.554 154.766 104.322 154.663 105.14C154.459 106.369 153.69 107.392 152.359 108.211C151.13 108.928 149.03 109.388 146.06 109.593ZM123.784 81.189C123.169 79.449 123.016 77.5042 123.323 75.3547C123.732 73.1029 124.603 71.6187 125.935 70.9022C126.344 70.1857 126.754 69.7251 127.164 69.5204C127.676 69.2134 127.983 68.8551 128.085 68.4457C128.29 68.0363 128.802 67.4733 129.622 66.7568C130.543 66.0403 131.363 65.375 132.08 64.7608C133.718 63.7373 135.511 62.509 137.457 61.076C139.505 59.5407 141.451 58.0053 143.295 56.47C145.241 54.9346 146.828 53.604 148.057 52.4781C149.389 51.3522 150.208 50.6357 150.515 50.3286C150.823 49.9192 151.437 49.6633 152.359 49.5609C153.383 49.4586 154.356 49.6121 155.278 50.0215C156.507 50.3286 157.48 50.9939 158.197 52.0175C159.016 53.041 159.426 54.474 159.426 56.3164C159.733 57.4424 159.068 58.8242 157.429 60.4619C155.893 61.9972 153.947 63.5326 151.591 65.0679C150.771 65.5797 149.645 66.3474 148.211 67.3709C146.88 68.3945 145.702 69.3669 144.677 70.2881C143.961 70.6975 142.885 71.414 141.451 72.4376C140.12 73.3588 138.942 74.28 137.918 75.2012C137.098 75.713 136.125 76.6342 134.999 77.9648C133.975 79.1931 132.797 80.1143 131.465 80.7284C128.188 83.7991 126.191 85.2833 125.474 85.1809C124.859 85.0786 124.296 83.7479 123.784 81.189Z" fill="#325F79"/>
<path d="M181.552 125.561C179.606 125.868 177.251 125.816 174.485 125.407C171.72 125.1 168.75 124.537 165.575 123.718C163.936 123.206 162.758 122.592 162.041 121.876C161.427 121.159 160.351 119.829 158.815 117.884C157.791 116.348 157.125 114.608 156.818 112.664C156.613 110.719 156.869 108.979 157.586 107.443C158.405 105.908 159.737 104.987 161.58 104.68C162.4 104.475 163.373 104.68 164.499 105.294C165.729 105.806 167.009 106.471 168.34 107.29C170.491 108.518 172.796 109.746 175.254 110.975C177.712 112.305 179.965 112.817 182.013 112.51C183.447 112.203 185.137 111.998 187.083 111.896C189.132 111.896 191.078 111.742 192.921 111.435C194.867 111.128 196.403 110.565 197.53 109.746C202.958 106.062 207.004 103.144 209.667 100.995C212.33 98.7431 213.661 97.6172 213.661 97.6172C213.866 97.2078 214.225 96.9007 214.737 96.696C215.351 96.389 216.068 96.0819 216.888 95.7748C217.502 95.1607 218.475 94.1883 219.807 92.8577C221.138 91.4247 222.418 90.0429 223.647 88.7122C224.979 87.3816 225.798 86.6139 226.105 86.4092C226.31 85.488 226.515 84.7715 226.72 84.2597C226.925 83.6456 227.027 83.0314 227.027 82.4173C227.847 81.5985 228.922 79.9096 230.253 77.3507C231.687 74.6894 233.121 71.7723 234.555 68.5992C235.989 65.3238 237.013 62.3555 237.628 59.6942C238.959 54.0646 239.42 48.9468 239.01 44.3408C238.601 39.7347 237.423 35.5893 235.477 31.9045C233.531 28.2196 230.919 24.9954 227.642 22.2318C226.515 21.3106 224.979 20.3382 223.033 19.3146C221.087 18.1887 219.09 17.1652 217.041 16.244C214.993 15.2204 213.149 14.4527 211.51 13.9409C209.974 13.4291 209.052 13.2244 208.745 13.3268C208.335 13.4292 207.516 15.0157 206.287 18.0864C205.16 21.0547 203.727 24.8931 201.985 29.6014C200.347 34.3098 198.554 39.3765 196.608 44.8014C194.765 50.1239 192.972 55.1905 191.231 60.0013C190.719 61.9461 190.053 63.9932 189.234 66.1427C188.517 68.2921 187.903 70.1857 187.39 71.8234C186.878 73.3588 186.622 74.3823 186.622 74.8941C185.496 76.6342 184.318 79.2954 183.089 82.8779C181.86 86.4604 180.836 91.5782 180.016 98.2314C179.094 101.711 178.429 104.629 178.019 106.983C177.609 109.235 177.2 110.309 176.79 110.207C176.79 110.207 176.739 110.668 176.636 111.589C176.534 112.612 176.329 113.278 176.022 113.585C176.022 114.199 175.407 114.608 174.178 114.813C172.949 115.018 171.515 114.762 169.877 114.045C168.238 113.329 166.701 111.947 165.268 109.9C164.96 108.774 164.704 107.136 164.499 104.987C164.397 102.735 164.755 100.125 165.575 97.1566C166.087 95.2119 166.804 92.7041 167.726 89.6334C168.647 86.5628 169.672 83.3897 170.798 80.1143C171.925 76.8389 172.949 73.8194 173.871 71.0558C174.895 68.2921 175.612 66.245 176.022 64.9144C176.739 63.1743 177.763 59.8989 179.094 55.0882C179.914 52.4269 180.733 49.7656 181.552 47.1044C182.474 44.4431 183.345 42.0889 184.164 40.0418C184.984 37.8923 185.547 36.5105 185.854 35.8964C186.366 34.5657 186.981 32.4163 187.698 29.4479C188.517 26.3772 189.746 22.8971 191.385 19.0076L192.46 13.9409L190.77 13.1733C189.541 13.5827 188.568 13.7362 187.851 13.6339C187.237 13.4292 186.827 13.2756 186.622 13.1733C186.008 13.378 185.188 13.2244 184.164 12.7127C183.242 12.0985 182.372 11.3308 181.552 10.4096C180.836 9.48843 180.375 8.72076 180.17 8.10662C179.965 7.6972 179.811 7.18541 179.709 6.57128C179.709 5.85478 179.709 5.49653 179.709 5.49653C179.811 4.88239 180.682 4.26826 182.321 3.65412C183.959 2.93763 186.059 2.27231 188.619 1.65817C191.282 1.04404 194.099 0.583433 197.069 0.276362C200.039 -0.0307089 202.805 -0.0818854 205.365 0.122831C208.028 0.327541 211.306 0.941675 215.198 1.96524C219.09 2.98881 222.418 4.01237 225.184 5.03594C228.461 6.26421 231.995 8.36251 235.784 11.3308C239.574 14.2992 243.005 17.8305 246.077 21.9247C249.252 26.019 251.352 30.3179 252.376 34.8216C252.684 36.0499 252.991 37.79 253.298 40.0418C253.605 42.2936 253.759 44.4943 253.759 46.6438C253.861 48.6909 253.657 50.0215 253.144 50.6357C252.94 51.0451 252.786 51.5569 252.684 52.171C252.684 52.6828 252.888 53.0411 253.298 53.2458C253.196 53.5528 252.837 54.7299 252.223 56.7771C251.608 58.7218 251.045 60.4107 250.533 61.8437C250.328 64.505 249.611 67.5756 248.382 71.0558C247.255 74.5359 245.975 77.8625 244.541 81.0355C243.21 84.1062 242.032 86.5116 241.008 88.2516C240.598 88.2516 240.188 88.354 239.779 88.5587C239.471 88.661 239.522 88.7634 239.932 88.8658C239.932 89.3775 239.369 90.3499 238.242 91.7829C237.833 92.09 237.167 92.8577 236.245 94.0859C235.426 95.2119 234.76 95.9795 234.248 96.389C234.145 97.1055 233.838 97.7196 233.326 98.2314C232.814 98.6408 232.353 98.8455 231.943 98.8455C231.943 98.8455 231.841 98.8455 231.636 98.8455C231.534 98.8455 231.482 99.0502 231.482 99.4596C230.663 100.688 229.28 102.274 227.334 104.219C225.388 106.164 223.186 108.16 220.728 110.207C218.27 112.254 215.812 114.148 213.354 115.888C210.896 117.628 208.643 118.907 206.594 119.726C205.57 120.443 204.495 121.006 203.368 121.415C202.241 121.927 201.166 122.439 200.142 122.95C199.63 123.36 198.145 123.718 195.686 124.025C193.228 124.332 190.617 124.588 187.851 124.793C185.188 124.998 183.089 125.253 181.552 125.561Z" fill="#325F79"/>
<path d="M270.031 112.049C264.397 112.049 260.045 110.412 256.972 107.136C254.002 103.861 252.517 98.8455 252.517 92.09C252.517 88.4052 253.182 84.3621 254.514 79.9608C255.948 75.5594 257.791 71.2605 260.045 67.0639C262.4 62.8673 264.961 59.2336 267.726 56.1629C270.491 52.9899 273.257 50.7892 276.022 49.5609C277.046 49.0492 278.122 48.6909 279.248 48.4862C280.477 48.1791 281.655 48.0256 282.782 48.0256C284.011 48.0256 285.342 48.1279 286.776 48.3327C288.313 48.435 289.747 48.7421 291.078 49.2539C293.434 49.9704 295.482 51.3522 297.223 53.3993C299.067 55.4464 299.989 58.4148 299.989 62.3043C299.989 63.3279 299.886 64.4538 299.681 65.6821C299.476 66.808 299.118 67.9339 298.606 69.0598C297.274 72.4376 295.226 75.6618 292.461 78.7325C289.798 81.8032 286.981 83.9527 284.011 85.1809C283.192 85.5904 282.372 85.8974 281.553 86.1021C280.836 86.2045 280.068 86.2557 279.248 86.2557C277.098 86.2557 275.152 85.9486 273.41 85.3345C271.772 84.7203 270.235 83.9015 268.802 82.8779L267.573 81.8032L266.804 83.3385C266.087 85.2833 265.575 86.921 265.268 88.2516C265.063 89.5823 264.961 90.5546 264.961 91.1688C264.961 92.3971 265.012 93.6765 265.114 95.0071C265.217 96.2354 265.524 97.259 266.036 98.0778C266.446 98.5896 266.958 98.999 267.573 99.3061C268.289 99.6132 269.16 99.7667 270.184 99.7667C270.799 99.7667 271.362 99.7667 271.874 99.7667C272.489 99.6644 273.001 99.562 273.41 99.4596C275.254 99.0502 276.739 98.3849 277.866 97.4637C279.095 96.4401 280.375 95.5701 281.707 94.8536L282.321 94.5465L282.167 94.0859C283.909 93.1647 285.086 92.6018 285.701 92.3971C286.315 92.09 286.776 91.8341 287.084 91.6294C287.493 91.22 287.954 91.0153 288.466 91.0153C289.9 90.8105 291.283 91.22 292.614 92.2435C294.048 93.1647 294.765 94.3418 294.765 95.7748C294.765 96.389 294.304 97.3613 293.382 98.692C292.563 100.023 291.488 101.353 290.156 102.684C288.927 103.912 287.647 104.885 286.315 105.601C286.008 105.703 285.701 105.857 285.394 106.062C285.086 106.164 284.779 106.318 284.472 106.522H284.625C283.704 107.751 282.782 108.365 281.86 108.365H280.631C280.221 109.081 278.89 109.849 276.637 110.668C274.383 111.589 272.181 112.049 270.031 112.049ZM278.019 75.0477C278.941 75.0477 279.761 74.8941 280.477 74.5871C281.297 74.28 282.065 73.9217 282.782 73.5123C285.24 71.7723 286.828 69.5204 287.544 66.7568C288.261 63.9932 288.005 61.8949 286.776 60.4619C286.572 60.1548 286.315 59.9501 286.008 59.8477C285.701 59.643 285.342 59.5407 284.933 59.5407C283.806 59.5407 282.526 59.8989 281.092 60.6154C279.761 61.3319 278.429 62.3555 277.098 63.6861C275.766 65.0167 274.537 66.6033 273.41 68.4457L271.413 71.6699C271.618 71.5676 271.772 71.5164 271.874 71.5164C272.079 71.414 272.233 71.3628 272.335 71.3628C273.257 71.3628 273.871 71.6699 274.179 72.284C274.486 72.8982 274.844 73.5123 275.254 74.1264C275.766 74.7406 276.688 75.0477 278.019 75.0477Z" fill="#325F79"/>
<path d="M321.802 106.676C320.982 106.778 319.446 106.318 317.193 105.294C314.94 104.27 313.198 103.093 311.969 101.763C311.252 100.637 310.587 98.7943 309.972 96.2354C309.358 93.5742 308.897 90.657 308.59 87.484C308.282 84.3109 308.129 81.4449 308.129 78.886C308.231 76.3271 308.487 73.5123 308.897 70.4416C309.409 67.2686 309.87 64.3514 310.279 61.6902C310.792 59.0289 311.15 57.2377 311.355 56.3164C312.277 55.2929 313.454 54.4229 314.888 53.7064C316.322 52.8875 317.654 52.3757 318.883 52.171C320.214 51.9663 321.187 52.3246 321.802 53.2458C323.236 53.9623 324.106 55.4976 324.413 57.8518C324.823 60.1036 324.567 62.2531 323.645 64.3002C323.645 64.812 323.543 65.5285 323.338 66.4497C323.133 67.2686 322.928 68.0363 322.724 68.7528C321.904 70.1857 321.443 71.4652 321.341 72.5911C321.341 73.6147 321.495 74.7918 321.802 76.1224C322.109 77.453 321.853 78.6813 321.034 79.8072V79.6537C320.931 80.3702 320.778 81.2914 320.573 82.4173C320.47 83.5432 320.419 84.6692 320.419 85.7951C320.521 86.8186 320.829 87.6887 321.341 88.4052C321.443 89.3264 321.802 89.9405 322.416 90.2476C323.031 90.5546 324.106 90.0429 325.643 88.7122C326.872 87.484 328.101 86.1021 329.33 84.5668C330.661 82.9291 331.839 81.3426 332.863 79.8072C333.887 78.1695 334.656 76.7877 335.168 75.6618C335.782 74.4335 335.987 73.6147 335.782 73.2052C335.372 72.3864 335.577 71.7211 336.397 71.2093C337.318 70.5952 338.087 70.0322 338.701 69.5204C339.213 68.9063 339.521 68.2921 339.623 67.678C339.725 66.9615 339.981 66.245 340.391 65.5285C340.903 65.0167 341.313 64.3002 341.62 63.379C341.313 62.6625 341.518 62.0484 342.235 61.5366C343.054 60.9225 343.566 60.3084 343.771 59.6942C344.078 57.9542 344.846 56.7259 346.075 56.0094C347.304 55.1905 348.636 54.8835 350.07 55.0882C351.504 55.1905 352.682 55.7023 353.603 56.6235C354.628 57.5447 355.088 58.8754 354.986 60.6154C354.884 61.8437 354.423 63.6349 353.603 65.9891C352.784 68.3433 351.709 70.8511 350.377 73.5123C349.148 76.1736 347.765 78.5789 346.229 80.7284C345.717 81.5473 345.256 82.3661 344.846 83.185C344.437 84.0038 343.771 85.0786 342.849 86.4092C342.03 87.7398 340.596 89.6846 338.547 92.2435C337.728 93.0624 336.909 93.9324 336.089 94.8536C335.27 95.6725 334.451 96.4401 333.631 97.1566C331.685 99.4085 329.586 101.558 327.332 103.605C325.079 105.55 323.236 106.573 321.802 106.676Z" fill="#325F79"/>
</svg>
